<mxfile host="65bd71144e">
    <diagram id="DJCDywBSii3eEMm7E908" name="Page-1">
        <mxGraphModel dx="1423" dy="2706" grid="1" gridSize="10" guides="1" tooltips="1" connect="1" arrows="1" fold="1" page="1" pageScale="1" pageWidth="850" pageHeight="1100" math="0" shadow="0">
            <root>
                <mxCell id="0"/>
                <mxCell id="1" parent="0"/>
                <mxCell id="196" value="" style="edgeStyle=none;html=1;fontColor=#050505;" edge="1" parent="1" source="185" target="111">
                    <mxGeometry relative="1" as="geometry"/>
                </mxCell>
                <mxCell id="185" value="Liste les fichiers" style="swimlane;fontStyle=0;childLayout=stackLayout;horizontal=1;startSize=30;horizontalStack=0;resizeParent=1;resizeParentMax=0;resizeLast=0;collapsible=1;marginBottom=0;whiteSpace=wrap;html=1;fillColor=#FFFFFF;fontColor=#050505;" vertex="1" parent="1">
                    <mxGeometry x="-142.5" y="-745.6" width="125" height="105.60000000000001" as="geometry"/>
                </mxCell>
                <mxCell id="190" value="" style="dashed=0;outlineConnect=0;html=1;align=center;labelPosition=center;verticalLabelPosition=bottom;verticalAlign=top;shape=mxgraph.weblogos.json_2;fontSize=11;" vertex="1" parent="185">
                    <mxGeometry y="30" width="125" height="25.2" as="geometry"/>
                </mxCell>
                <mxCell id="191" value="" style="dashed=0;outlineConnect=0;html=1;align=center;labelPosition=center;verticalLabelPosition=bottom;verticalAlign=top;shape=mxgraph.weblogos.json_2;fontSize=11;" vertex="1" parent="185">
                    <mxGeometry y="55.2" width="125" height="25.2" as="geometry"/>
                </mxCell>
                <mxCell id="192" value="" style="dashed=0;outlineConnect=0;html=1;align=center;labelPosition=center;verticalLabelPosition=bottom;verticalAlign=top;shape=mxgraph.weblogos.json_2;fontSize=11;" vertex="1" parent="185">
                    <mxGeometry y="80.4" width="125" height="25.2" as="geometry"/>
                </mxCell>
                <mxCell id="195" value="" style="edgeStyle=none;html=1;fontColor=#050505;entryX=0.438;entryY=-0.019;entryDx=0;entryDy=0;entryPerimeter=0;" edge="1" parent="1" source="113" target="185">
                    <mxGeometry relative="1" as="geometry">
                        <mxPoint x="-85" y="-740" as="targetPoint"/>
                    </mxGeometry>
                </mxCell>
                <mxCell id="113" value="Cherche Dossier" style="aspect=fixed;html=1;points=[];align=center;image;fontSize=12;image=img/lib/azure2/general/Storage_Azure_Files.svg;verticalAlign=top;" parent="1" vertex="1">
                    <mxGeometry x="-125" y="-880" width="76.31" height="62" as="geometry"/>
                </mxCell>
                <mxCell id="42" value="" style="html=1;strokeWidth=2;shape=manualInput;whiteSpace=wrap;rounded=1;size=26;arcSize=11;fontSize=16;" parent="1" vertex="1">
                    <mxGeometry x="379.5" y="-1820" width="161" height="90" as="geometry"/>
                </mxCell>
                <mxCell id="7" value="" style="edgeStyle=none;html=1;fontSize=23;entryX=0.483;entryY=0.157;entryDx=0;entryDy=0;entryPerimeter=0;startArrow=none;exitX=0.516;exitY=1.012;exitDx=0;exitDy=0;exitPerimeter=0;" parent="1" source="169" target="42" edge="1">
                    <mxGeometry relative="1" as="geometry">
                        <mxPoint x="460" y="-1820" as="targetPoint"/>
                    </mxGeometry>
                </mxCell>
                <mxCell id="3" value="Start" style="strokeWidth=2;html=1;shape=mxgraph.flowchart.terminator;whiteSpace=wrap;fontSize=23;align=center;verticalAlign=top;" parent="1" vertex="1">
                    <mxGeometry x="349.75" y="-2140" width="220.5" height="90" as="geometry"/>
                </mxCell>
                <mxCell id="38" style="edgeStyle=none;html=1;exitX=0.5;exitY=1;exitDx=0;exitDy=0;entryX=0.5;entryY=0;entryDx=0;entryDy=0;entryPerimeter=0;fontSize=16;" parent="1" source="42" target="37" edge="1">
                    <mxGeometry relative="1" as="geometry">
                        <mxPoint x="460" y="-1690" as="sourcePoint"/>
                    </mxGeometry>
                </mxCell>
                <mxCell id="28" style="edgeStyle=none;html=1;exitX=0;exitY=0.5;exitDx=0;exitDy=0;exitPerimeter=0;entryX=0.5;entryY=0;entryDx=0;entryDy=0;fontSize=16;" parent="1" source="6" target="13" edge="1">
                    <mxGeometry relative="1" as="geometry"/>
                </mxCell>
                <mxCell id="29" style="edgeStyle=none;html=1;exitX=0;exitY=0.5;exitDx=0;exitDy=0;exitPerimeter=0;entryX=0.5;entryY=0;entryDx=0;entryDy=0;fontSize=16;" parent="1" source="6" target="15" edge="1">
                    <mxGeometry relative="1" as="geometry"/>
                </mxCell>
                <mxCell id="30" style="edgeStyle=none;html=1;exitX=0;exitY=0.5;exitDx=0;exitDy=0;exitPerimeter=0;entryX=0.5;entryY=0;entryDx=0;entryDy=0;fontSize=16;" parent="1" source="6" target="16" edge="1">
                    <mxGeometry relative="1" as="geometry"/>
                </mxCell>
                <mxCell id="31" style="edgeStyle=none;html=1;exitX=0.5;exitY=1;exitDx=0;exitDy=0;exitPerimeter=0;entryX=0.5;entryY=0;entryDx=0;entryDy=0;fontSize=16;" parent="1" source="6" target="17" edge="1">
                    <mxGeometry relative="1" as="geometry"/>
                </mxCell>
                <mxCell id="32" style="edgeStyle=none;html=1;exitX=1;exitY=0.5;exitDx=0;exitDy=0;exitPerimeter=0;entryX=0.5;entryY=0;entryDx=0;entryDy=0;fontSize=16;" parent="1" source="6" target="18" edge="1">
                    <mxGeometry relative="1" as="geometry"/>
                </mxCell>
                <mxCell id="33" style="edgeStyle=none;html=1;exitX=1;exitY=0.5;exitDx=0;exitDy=0;exitPerimeter=0;entryX=0.5;entryY=0;entryDx=0;entryDy=0;fontSize=16;" parent="1" source="6" target="19" edge="1">
                    <mxGeometry relative="1" as="geometry"/>
                </mxCell>
                <mxCell id="34" style="edgeStyle=none;html=1;exitX=1;exitY=0.5;exitDx=0;exitDy=0;exitPerimeter=0;entryX=0.5;entryY=0;entryDx=0;entryDy=0;fontSize=16;" parent="1" source="6" target="20" edge="1">
                    <mxGeometry relative="1" as="geometry"/>
                </mxCell>
                <mxCell id="6" value="Decisions" style="strokeWidth=2;html=1;shape=mxgraph.flowchart.decision;whiteSpace=wrap;fontSize=23;" parent="1" vertex="1">
                    <mxGeometry x="385" y="-1340" width="150" height="100" as="geometry"/>
                </mxCell>
                <mxCell id="12" value="&lt;span style=&quot;font-size: 16px;&quot;&gt;Manual input Opt&lt;/span&gt;" style="text;strokeColor=none;align=left;fillColor=none;html=1;verticalAlign=top;whiteSpace=wrap;rounded=0;" parent="1" vertex="1">
                    <mxGeometry x="395" y="-1780" width="140" height="30" as="geometry"/>
                </mxCell>
                <mxCell id="153" style="edgeStyle=none;html=1;exitX=0.25;exitY=1;exitDx=0;exitDy=0;entryX=0.5;entryY=0;entryDx=0;entryDy=0;fontColor=#000000;" parent="1" source="13" target="45" edge="1">
                    <mxGeometry relative="1" as="geometry"/>
                </mxCell>
                <mxCell id="13" value="Opt :&amp;nbsp; 1&lt;br&gt;&lt;h3 style=&quot;margin-top: 24px; margin-bottom: 16px; line-height: 1.25; font-size: 1.25em; position: relative; color: rgb(204, 204, 204); font-family: -apple-system, BlinkMacSystemFont, &amp;quot;Segoe WPC&amp;quot;, &amp;quot;Segoe UI&amp;quot;, system-ui, Ubuntu, &amp;quot;Droid Sans&amp;quot;, sans-serif;&quot; id=&quot;ajouter-une-configuration&quot; dir=&quot;auto&quot; class=&quot;code-line&quot; data-line=&quot;29&quot;&gt;Ajouter une configuration&amp;nbsp;&lt;/h3&gt;" style="rounded=1;whiteSpace=wrap;html=1;absoluteArcSize=1;arcSize=14;strokeWidth=2;fontSize=16;align=center;" parent="1" vertex="1">
                    <mxGeometry x="-520" y="-1050" width="225" height="120" as="geometry"/>
                </mxCell>
                <mxCell id="114" style="edgeStyle=none;html=1;exitX=0.5;exitY=1;exitDx=0;exitDy=0;" parent="1" source="15" target="113" edge="1">
                    <mxGeometry relative="1" as="geometry"/>
                </mxCell>
                <mxCell id="15" value="Opt :2&lt;br&gt;&lt;h3 style=&quot;margin-top: 24px; margin-bottom: 16px; line-height: 1.25; font-size: 1.25em; position: relative; color: rgb(204, 204, 204); font-family: -apple-system, BlinkMacSystemFont, &amp;quot;Segoe WPC&amp;quot;, &amp;quot;Segoe UI&amp;quot;, system-ui, Ubuntu, &amp;quot;Droid Sans&amp;quot;, sans-serif;&quot; id=&quot;modifier-une-configuration&quot; dir=&quot;auto&quot; class=&quot;code-line&quot; data-line=&quot;43&quot;&gt;Modifier une configuration :&lt;/h3&gt;" style="rounded=1;whiteSpace=wrap;html=1;absoluteArcSize=1;arcSize=14;strokeWidth=2;fontSize=16;align=center;" parent="1" vertex="1">
                    <mxGeometry x="-180" y="-1050" width="190" height="120" as="geometry"/>
                </mxCell>
                <mxCell id="184" style="edgeStyle=none;html=1;exitX=0.5;exitY=1;exitDx=0;exitDy=0;fontColor=#000000;" parent="1" source="16" target="197" edge="1">
                    <mxGeometry relative="1" as="geometry">
                        <mxPoint x="200.98926000000006" y="-879.5400000000002" as="targetPoint"/>
                    </mxGeometry>
                </mxCell>
                <mxCell id="16" value="Opt : 3&lt;br&gt;&lt;span style=&quot;color: rgb(204, 204, 204); font-family: -apple-system, BlinkMacSystemFont, &amp;quot;Segoe WPC&amp;quot;, &amp;quot;Segoe UI&amp;quot;, system-ui, Ubuntu, &amp;quot;Droid Sans&amp;quot;, sans-serif; font-size: 1.25em; background-color: initial;&quot;&gt;&lt;br&gt;&lt;b&gt;Lister les configurations&lt;/b&gt; :&lt;/span&gt;" style="rounded=1;whiteSpace=wrap;html=1;absoluteArcSize=1;arcSize=14;strokeWidth=2;fontSize=16;align=center;" parent="1" vertex="1">
                    <mxGeometry x="100" y="-1050" width="210" height="110" as="geometry"/>
                </mxCell>
                <mxCell id="17" value="Opt : 4&lt;br&gt;Supprimer une configuration&amp;nbsp;&lt;br&gt;" style="rounded=1;whiteSpace=wrap;html=1;absoluteArcSize=1;arcSize=14;strokeWidth=2;fontSize=16;" parent="1" vertex="1">
                    <mxGeometry x="361" y="-1050" width="196" height="110" as="geometry"/>
                </mxCell>
                <mxCell id="18" value="Opt : 5&lt;br&gt;&lt;h3 style=&quot;margin-top: 24px; margin-bottom: 16px; line-height: 1.25; font-size: 1.25em; position: relative; color: rgb(204, 204, 204); font-family: -apple-system, BlinkMacSystemFont, &amp;quot;Segoe WPC&amp;quot;, &amp;quot;Segoe UI&amp;quot;, system-ui, Ubuntu, &amp;quot;Droid Sans&amp;quot;, sans-serif;&quot; id=&quot;sauvegarder-les-configurations&quot; dir=&quot;auto&quot; class=&quot;code-line&quot; data-line=&quot;85&quot;&gt;Sauvegarder les configurations :&lt;/h3&gt;" style="rounded=1;whiteSpace=wrap;html=1;absoluteArcSize=1;arcSize=14;strokeWidth=2;fontSize=16;align=center;" parent="1" vertex="1">
                    <mxGeometry x="600.5" y="-1050" width="199.5" height="120" as="geometry"/>
                </mxCell>
                <mxCell id="19" value="Opt :&amp;nbsp;" style="rounded=1;whiteSpace=wrap;html=1;absoluteArcSize=1;arcSize=14;strokeWidth=2;fontSize=16;" parent="1" vertex="1">
                    <mxGeometry x="850" y="-1000" width="160" height="50" as="geometry"/>
                </mxCell>
                <mxCell id="20" value="Opt :&amp;nbsp;" style="rounded=1;whiteSpace=wrap;html=1;absoluteArcSize=1;arcSize=14;strokeWidth=2;fontSize=16;" parent="1" vertex="1">
                    <mxGeometry x="1100" y="-1000" width="160" height="50" as="geometry"/>
                </mxCell>
                <mxCell id="213" style="edgeStyle=none;html=1;exitX=0.5;exitY=1;exitDx=0;exitDy=0;exitPerimeter=0;fontColor=#050505;" edge="1" parent="1" source="35" target="166">
                    <mxGeometry relative="1" as="geometry">
                        <mxPoint x="-120" y="-1700" as="targetPoint"/>
                        <Array as="points">
                            <mxPoint x="-465" y="410"/>
                            <mxPoint x="-600" y="410"/>
                            <mxPoint x="-600" y="-1930"/>
                        </Array>
                    </mxGeometry>
                </mxCell>
                <mxCell id="35" value="&lt;font style=&quot;font-size: 11px;&quot;&gt;Variable&lt;br&gt;avec&lt;br&gt;Dictionaire&lt;/font&gt;" style="strokeWidth=2;html=1;shape=mxgraph.flowchart.merge_or_storage;whiteSpace=wrap;fontSize=16;verticalAlign=top;fillColor=#CCFF99;fontColor=#000000;" parent="1" vertex="1">
                    <mxGeometry x="-530" y="190" width="130" height="100" as="geometry"/>
                </mxCell>
                <mxCell id="39" style="edgeStyle=none;html=1;exitX=0.5;exitY=1;exitDx=0;exitDy=0;exitPerimeter=0;entryX=0.5;entryY=0;entryDx=0;entryDy=0;entryPerimeter=0;fontSize=16;" parent="1" source="37" target="6" edge="1">
                    <mxGeometry relative="1" as="geometry"/>
                </mxCell>
                <mxCell id="40" style="edgeStyle=none;html=1;exitX=1;exitY=0.5;exitDx=0;exitDy=0;exitPerimeter=0;fontSize=16;entryX=0;entryY=0.5;entryDx=0;entryDy=0;entryPerimeter=0;startArrow=none;" parent="1" source="59" target="43" edge="1">
                    <mxGeometry relative="1" as="geometry">
                        <mxPoint x="660" y="-1530" as="targetPoint"/>
                    </mxGeometry>
                </mxCell>
                <mxCell id="37" value="Bon format?" style="strokeWidth=2;html=1;shape=mxgraph.flowchart.decision;whiteSpace=wrap;fontSize=16;" parent="1" vertex="1">
                    <mxGeometry x="398.5" y="-1590" width="121" height="120" as="geometry"/>
                </mxCell>
                <mxCell id="44" style="edgeStyle=none;html=1;exitX=0.5;exitY=0;exitDx=0;exitDy=0;exitPerimeter=0;entryX=1;entryY=0.5;entryDx=0;entryDy=0;fontSize=16;" parent="1" source="43" target="42" edge="1">
                    <mxGeometry relative="1" as="geometry">
                        <Array as="points">
                            <mxPoint x="740" y="-1775"/>
                        </Array>
                    </mxGeometry>
                </mxCell>
                <mxCell id="43" value="Error" style="html=1;strokeColor=none;fillColor=#0079D6;labelPosition=center;verticalLabelPosition=middle;verticalAlign=top;align=center;fontSize=12;outlineConnect=0;spacingTop=-6;fontColor=#FFFFFF;sketch=0;shape=mxgraph.sitemap.error;" parent="1" vertex="1">
                    <mxGeometry x="680" y="-1565" width="120" height="70" as="geometry"/>
                </mxCell>
                <mxCell id="57" style="edgeStyle=none;html=1;exitX=0.5;exitY=1;exitDx=0;exitDy=0;entryX=0.5;entryY=0;entryDx=0;entryDy=0;entryPerimeter=0;fontSize=16;" parent="1" source="45" target="52" edge="1">
                    <mxGeometry relative="1" as="geometry"/>
                </mxCell>
                <mxCell id="45" value="&lt;br&gt;Inp serveur" style="html=1;strokeWidth=2;shape=manualInput;whiteSpace=wrap;rounded=1;size=26;arcSize=11;fontSize=16;align=left;verticalAlign=top;" parent="1" vertex="1">
                    <mxGeometry x="-510" y="-770" width="90" height="60" as="geometry"/>
                </mxCell>
                <mxCell id="51" style="edgeStyle=none;html=1;exitX=1;exitY=0.5;exitDx=0;exitDy=0;exitPerimeter=0;fontSize=16;entryX=0;entryY=0.5;entryDx=0;entryDy=0;entryPerimeter=0;" parent="1" source="52" target="54" edge="1">
                    <mxGeometry relative="1" as="geometry">
                        <mxPoint x="158.75" y="-625" as="targetPoint"/>
                    </mxGeometry>
                </mxCell>
                <mxCell id="66" style="edgeStyle=none;html=1;exitX=0.5;exitY=1;exitDx=0;exitDy=0;exitPerimeter=0;fontSize=12;entryX=0.5;entryY=0;entryDx=0;entryDy=0;" parent="1" source="52" target="67" edge="1">
                    <mxGeometry relative="1" as="geometry">
                        <mxPoint x="-465" y="-540" as="targetPoint"/>
                    </mxGeometry>
                </mxCell>
                <mxCell id="52" value="&lt;font style=&quot;font-size: 12px;&quot;&gt;Bon format?&lt;/font&gt;" style="strokeWidth=2;html=1;shape=mxgraph.flowchart.decision;whiteSpace=wrap;fontSize=16;" parent="1" vertex="1">
                    <mxGeometry x="-514.75" y="-660" width="99.5" height="50" as="geometry"/>
                </mxCell>
                <mxCell id="62" style="edgeStyle=none;html=1;exitX=0.5;exitY=0;exitDx=0;exitDy=0;exitPerimeter=0;entryX=1;entryY=0.5;entryDx=0;entryDy=0;fontSize=16;" parent="1" source="54" target="45" edge="1">
                    <mxGeometry relative="1" as="geometry">
                        <Array as="points">
                            <mxPoint x="-300" y="-740"/>
                        </Array>
                    </mxGeometry>
                </mxCell>
                <mxCell id="54" value="Error" style="html=1;strokeColor=none;fillColor=#0079D6;labelPosition=center;verticalLabelPosition=middle;verticalAlign=top;align=center;fontSize=12;outlineConnect=0;spacingTop=-6;fontColor=#FFFFFF;sketch=0;shape=mxgraph.sitemap.error;" parent="1" vertex="1">
                    <mxGeometry x="-330" y="-665" width="60.5" height="60" as="geometry"/>
                </mxCell>
                <mxCell id="58" value="Oui" style="text;strokeColor=none;align=center;fillColor=none;html=1;verticalAlign=middle;whiteSpace=wrap;rounded=0;fontSize=16;" parent="1" vertex="1">
                    <mxGeometry x="450" y="-1460" width="60" height="30" as="geometry"/>
                </mxCell>
                <mxCell id="60" value="Oui" style="text;strokeColor=none;align=center;fillColor=none;html=1;verticalAlign=middle;whiteSpace=wrap;rounded=0;fontSize=16;" parent="1" vertex="1">
                    <mxGeometry x="-460.5" y="-610" width="60" height="30" as="geometry"/>
                </mxCell>
                <mxCell id="61" value="Non" style="text;strokeColor=none;align=center;fillColor=none;html=1;verticalAlign=middle;whiteSpace=wrap;rounded=0;fontSize=16;" parent="1" vertex="1">
                    <mxGeometry x="-420" y="-670" width="60" height="30" as="geometry"/>
                </mxCell>
                <mxCell id="91" style="edgeStyle=none;html=1;exitX=0.5;exitY=1;exitDx=0;exitDy=0;entryX=0.5;entryY=0;entryDx=0;entryDy=0;entryPerimeter=0;fontSize=12;" parent="1" source="67" target="70" edge="1">
                    <mxGeometry relative="1" as="geometry"/>
                </mxCell>
                <mxCell id="67" value="&lt;br&gt;&lt;div style=&quot;text-align: center;&quot;&gt;&lt;span style=&quot;background-color: initial;&quot;&gt;Inp IP&lt;/span&gt;&lt;/div&gt;" style="html=1;strokeWidth=2;shape=manualInput;whiteSpace=wrap;rounded=1;size=26;arcSize=11;fontSize=16;align=left;verticalAlign=top;" parent="1" vertex="1">
                    <mxGeometry x="-510" y="-530" width="90" height="60" as="geometry"/>
                </mxCell>
                <mxCell id="68" style="edgeStyle=none;html=1;exitX=1;exitY=0.5;exitDx=0;exitDy=0;exitPerimeter=0;fontSize=16;entryX=0;entryY=0.5;entryDx=0;entryDy=0;entryPerimeter=0;" parent="1" source="70" target="72" edge="1">
                    <mxGeometry relative="1" as="geometry">
                        <mxPoint x="158.75" y="-385" as="targetPoint"/>
                    </mxGeometry>
                </mxCell>
                <mxCell id="69" style="edgeStyle=none;html=1;exitX=0.5;exitY=1;exitDx=0;exitDy=0;exitPerimeter=0;fontSize=12;entryX=0.5;entryY=0;entryDx=0;entryDy=0;" parent="1" source="70" target="75" edge="1">
                    <mxGeometry relative="1" as="geometry">
                        <mxPoint x="-465" y="-300" as="targetPoint"/>
                    </mxGeometry>
                </mxCell>
                <mxCell id="70" value="&lt;font style=&quot;font-size: 12px;&quot;&gt;Bon format?&lt;/font&gt;" style="strokeWidth=2;html=1;shape=mxgraph.flowchart.decision;whiteSpace=wrap;fontSize=16;" parent="1" vertex="1">
                    <mxGeometry x="-514.75" y="-420" width="99.5" height="50" as="geometry"/>
                </mxCell>
                <mxCell id="71" style="edgeStyle=none;html=1;exitX=0.5;exitY=0;exitDx=0;exitDy=0;exitPerimeter=0;entryX=1;entryY=0.5;entryDx=0;entryDy=0;fontSize=16;" parent="1" source="72" target="67" edge="1">
                    <mxGeometry relative="1" as="geometry">
                        <Array as="points">
                            <mxPoint x="-300" y="-500"/>
                        </Array>
                    </mxGeometry>
                </mxCell>
                <mxCell id="72" value="Error" style="html=1;strokeColor=none;fillColor=#0079D6;labelPosition=center;verticalLabelPosition=middle;verticalAlign=top;align=center;fontSize=12;outlineConnect=0;spacingTop=-6;fontColor=#FFFFFF;sketch=0;shape=mxgraph.sitemap.error;" parent="1" vertex="1">
                    <mxGeometry x="-330" y="-425" width="60.5" height="60" as="geometry"/>
                </mxCell>
                <mxCell id="73" value="Oui" style="text;strokeColor=none;align=center;fillColor=none;html=1;verticalAlign=middle;whiteSpace=wrap;rounded=0;fontSize=16;" parent="1" vertex="1">
                    <mxGeometry x="-460.5" y="-370" width="60" height="30" as="geometry"/>
                </mxCell>
                <mxCell id="74" value="Non" style="text;strokeColor=none;align=center;fillColor=none;html=1;verticalAlign=middle;whiteSpace=wrap;rounded=0;fontSize=16;" parent="1" vertex="1">
                    <mxGeometry x="-420" y="-430" width="60" height="30" as="geometry"/>
                </mxCell>
                <mxCell id="93" style="edgeStyle=none;html=1;exitX=0.5;exitY=1;exitDx=0;exitDy=0;entryX=0.5;entryY=0;entryDx=0;entryDy=0;entryPerimeter=0;fontSize=12;" parent="1" source="75" target="78" edge="1">
                    <mxGeometry relative="1" as="geometry"/>
                </mxCell>
                <mxCell id="75" value="&lt;br&gt;Inp sys" style="html=1;strokeWidth=2;shape=manualInput;whiteSpace=wrap;rounded=1;size=26;arcSize=11;fontSize=16;align=left;verticalAlign=top;" parent="1" vertex="1">
                    <mxGeometry x="-510" y="-290" width="90" height="60" as="geometry"/>
                </mxCell>
                <mxCell id="76" style="edgeStyle=none;html=1;exitX=1;exitY=0.5;exitDx=0;exitDy=0;exitPerimeter=0;fontSize=16;entryX=0;entryY=0.5;entryDx=0;entryDy=0;entryPerimeter=0;" parent="1" source="78" target="80" edge="1">
                    <mxGeometry relative="1" as="geometry">
                        <mxPoint x="158.75" y="-145" as="targetPoint"/>
                    </mxGeometry>
                </mxCell>
                <mxCell id="77" style="edgeStyle=none;html=1;exitX=0.5;exitY=1;exitDx=0;exitDy=0;exitPerimeter=0;fontSize=12;entryX=0.5;entryY=0;entryDx=0;entryDy=0;" parent="1" source="78" target="83" edge="1">
                    <mxGeometry relative="1" as="geometry">
                        <mxPoint x="-465" y="-60" as="targetPoint"/>
                    </mxGeometry>
                </mxCell>
                <mxCell id="78" value="&lt;font style=&quot;font-size: 12px;&quot;&gt;Bon format?&lt;/font&gt;" style="strokeWidth=2;html=1;shape=mxgraph.flowchart.decision;whiteSpace=wrap;fontSize=16;" parent="1" vertex="1">
                    <mxGeometry x="-514.75" y="-180" width="99.5" height="50" as="geometry"/>
                </mxCell>
                <mxCell id="79" style="edgeStyle=none;html=1;exitX=0.5;exitY=0;exitDx=0;exitDy=0;exitPerimeter=0;entryX=1;entryY=0.5;entryDx=0;entryDy=0;fontSize=16;" parent="1" source="80" target="75" edge="1">
                    <mxGeometry relative="1" as="geometry">
                        <Array as="points">
                            <mxPoint x="-300" y="-260"/>
                        </Array>
                    </mxGeometry>
                </mxCell>
                <mxCell id="80" value="Error" style="html=1;strokeColor=none;fillColor=#0079D6;labelPosition=center;verticalLabelPosition=middle;verticalAlign=top;align=center;fontSize=12;outlineConnect=0;spacingTop=-6;fontColor=#FFFFFF;sketch=0;shape=mxgraph.sitemap.error;" parent="1" vertex="1">
                    <mxGeometry x="-330" y="-185" width="60.5" height="60" as="geometry"/>
                </mxCell>
                <mxCell id="81" value="Oui" style="text;strokeColor=none;align=center;fillColor=none;html=1;verticalAlign=middle;whiteSpace=wrap;rounded=0;fontSize=16;" parent="1" vertex="1">
                    <mxGeometry x="-460.5" y="-130" width="60" height="30" as="geometry"/>
                </mxCell>
                <mxCell id="82" value="Non" style="text;strokeColor=none;align=center;fillColor=none;html=1;verticalAlign=middle;whiteSpace=wrap;rounded=0;fontSize=16;" parent="1" vertex="1">
                    <mxGeometry x="-420" y="-190" width="60" height="30" as="geometry"/>
                </mxCell>
                <mxCell id="92" style="edgeStyle=none;html=1;exitX=0.5;exitY=1;exitDx=0;exitDy=0;entryX=0.5;entryY=0;entryDx=0;entryDy=0;entryPerimeter=0;fontSize=12;" parent="1" source="83" target="86" edge="1">
                    <mxGeometry relative="1" as="geometry"/>
                </mxCell>
                <mxCell id="83" value="&lt;br&gt;Inp serv" style="html=1;strokeWidth=2;shape=manualInput;whiteSpace=wrap;rounded=1;size=26;arcSize=11;fontSize=16;align=left;verticalAlign=top;" parent="1" vertex="1">
                    <mxGeometry x="-510" y="-50" width="90" height="60" as="geometry"/>
                </mxCell>
                <mxCell id="84" style="edgeStyle=none;html=1;exitX=1;exitY=0.5;exitDx=0;exitDy=0;exitPerimeter=0;fontSize=16;entryX=0;entryY=0.5;entryDx=0;entryDy=0;entryPerimeter=0;" parent="1" source="86" target="88" edge="1">
                    <mxGeometry relative="1" as="geometry">
                        <mxPoint x="148.75" y="95" as="targetPoint"/>
                    </mxGeometry>
                </mxCell>
                <mxCell id="85" style="edgeStyle=none;html=1;exitX=0.5;exitY=1;exitDx=0;exitDy=0;exitPerimeter=0;fontSize=12;entryX=0.5;entryY=0;entryDx=0;entryDy=0;entryPerimeter=0;" parent="1" source="86" target="35" edge="1">
                    <mxGeometry relative="1" as="geometry">
                        <mxPoint x="-464.75" y="180" as="targetPoint"/>
                    </mxGeometry>
                </mxCell>
                <mxCell id="86" value="&lt;font style=&quot;font-size: 12px;&quot;&gt;Bon format?&lt;/font&gt;" style="strokeWidth=2;html=1;shape=mxgraph.flowchart.decision;whiteSpace=wrap;fontSize=16;" parent="1" vertex="1">
                    <mxGeometry x="-514.75" y="60" width="99.5" height="50" as="geometry"/>
                </mxCell>
                <mxCell id="87" style="edgeStyle=none;html=1;exitX=0.5;exitY=0;exitDx=0;exitDy=0;exitPerimeter=0;entryX=1;entryY=0.5;entryDx=0;entryDy=0;fontSize=16;" parent="1" source="88" target="83" edge="1">
                    <mxGeometry relative="1" as="geometry">
                        <Array as="points">
                            <mxPoint x="-310" y="-20"/>
                        </Array>
                    </mxGeometry>
                </mxCell>
                <mxCell id="88" value="Error" style="html=1;strokeColor=none;fillColor=#0079D6;labelPosition=center;verticalLabelPosition=middle;verticalAlign=top;align=center;fontSize=12;outlineConnect=0;spacingTop=-6;fontColor=#FFFFFF;sketch=0;shape=mxgraph.sitemap.error;" parent="1" vertex="1">
                    <mxGeometry x="-340" y="55" width="60.5" height="60" as="geometry"/>
                </mxCell>
                <mxCell id="89" value="Oui" style="text;strokeColor=none;align=center;fillColor=none;html=1;verticalAlign=middle;whiteSpace=wrap;rounded=0;fontSize=16;" parent="1" vertex="1">
                    <mxGeometry x="-470.5" y="110" width="60" height="30" as="geometry"/>
                </mxCell>
                <mxCell id="90" value="Non" style="text;strokeColor=none;align=center;fillColor=none;html=1;verticalAlign=middle;whiteSpace=wrap;rounded=0;fontSize=16;" parent="1" vertex="1">
                    <mxGeometry x="-430" y="50" width="60" height="30" as="geometry"/>
                </mxCell>
                <mxCell id="99" style="edgeStyle=none;html=1;exitX=0.75;exitY=0;exitDx=0;exitDy=0;entryX=0.5;entryY=0;entryDx=0;entryDy=0;" parent="1" source="59" target="59" edge="1">
                    <mxGeometry relative="1" as="geometry"/>
                </mxCell>
                <mxCell id="100" value="" style="edgeStyle=none;html=1;exitX=1;exitY=0.5;exitDx=0;exitDy=0;exitPerimeter=0;fontSize=16;entryX=0;entryY=0.5;entryDx=0;entryDy=0;entryPerimeter=0;endArrow=none;" parent="1" source="37" target="59" edge="1">
                    <mxGeometry relative="1" as="geometry">
                        <mxPoint x="680" y="-1530" as="targetPoint"/>
                        <mxPoint x="519.5" y="-1530" as="sourcePoint"/>
                    </mxGeometry>
                </mxCell>
                <mxCell id="59" value="Non" style="text;strokeColor=none;align=center;fillColor=none;html=1;verticalAlign=middle;whiteSpace=wrap;rounded=0;fontSize=16;" parent="1" vertex="1">
                    <mxGeometry x="519.5" y="-1545" width="60" height="30" as="geometry"/>
                </mxCell>
                <mxCell id="179" style="edgeStyle=none;html=1;exitX=0.5;exitY=1;exitDx=0;exitDy=0;fontColor=#000000;" parent="1" source="101" target="110" edge="1">
                    <mxGeometry relative="1" as="geometry"/>
                </mxCell>
                <mxCell id="101" value="Inp nom Fichier" style="html=1;strokeWidth=2;shape=manualInput;whiteSpace=wrap;rounded=1;size=26;arcSize=11;fontSize=16;" parent="1" vertex="1">
                    <mxGeometry x="511.63" y="-35" width="161" height="90" as="geometry"/>
                </mxCell>
                <mxCell id="110" value="" style="dashed=0;outlineConnect=0;html=1;align=center;labelPosition=center;verticalLabelPosition=bottom;verticalAlign=top;shape=mxgraph.weblogos.json_2;fontSize=11;" parent="1" vertex="1">
                    <mxGeometry x="490.7" y="130" width="202.87" height="50" as="geometry"/>
                </mxCell>
                <mxCell id="123" style="edgeStyle=none;html=1;exitX=0.5;exitY=1;exitDx=0;exitDy=0;entryX=0.5;entryY=0;entryDx=0;entryDy=0;" parent="1" source="111" target="119" edge="1">
                    <mxGeometry relative="1" as="geometry"/>
                </mxCell>
                <mxCell id="111" value="&lt;br&gt;Inp User&lt;br&gt;selection fichier" style="html=1;strokeWidth=2;shape=manualInput;whiteSpace=wrap;rounded=1;size=26;arcSize=11;fontSize=16;align=center;verticalAlign=top;" parent="1" vertex="1">
                    <mxGeometry x="-130" y="-560" width="100" height="100" as="geometry"/>
                </mxCell>
                <mxCell id="124" style="edgeStyle=none;html=1;exitX=0.5;exitY=1;exitDx=0;exitDy=0;entryX=0.5;entryY=0;entryDx=0;entryDy=0;" parent="1" source="119" target="120" edge="1">
                    <mxGeometry relative="1" as="geometry"/>
                </mxCell>
                <mxCell id="119" value="&lt;br&gt;Inp serveur" style="html=1;strokeWidth=2;shape=manualInput;whiteSpace=wrap;rounded=1;size=26;arcSize=11;fontSize=16;align=left;verticalAlign=top;" parent="1" vertex="1">
                    <mxGeometry x="-125" y="-370" width="90" height="60" as="geometry"/>
                </mxCell>
                <mxCell id="125" style="edgeStyle=none;html=1;exitX=0.5;exitY=1;exitDx=0;exitDy=0;entryX=0.5;entryY=0;entryDx=0;entryDy=0;" parent="1" source="120" target="121" edge="1">
                    <mxGeometry relative="1" as="geometry"/>
                </mxCell>
                <mxCell id="120" value="&lt;br&gt;&lt;div style=&quot;text-align: center;&quot;&gt;&lt;span style=&quot;background-color: initial;&quot;&gt;Inp IP&lt;/span&gt;&lt;/div&gt;" style="html=1;strokeWidth=2;shape=manualInput;whiteSpace=wrap;rounded=1;size=26;arcSize=11;fontSize=16;align=left;verticalAlign=top;" parent="1" vertex="1">
                    <mxGeometry x="-125" y="-270" width="90" height="60" as="geometry"/>
                </mxCell>
                <mxCell id="127" style="edgeStyle=none;html=1;exitX=0.5;exitY=1;exitDx=0;exitDy=0;entryX=0.5;entryY=0;entryDx=0;entryDy=0;" parent="1" source="121" target="122" edge="1">
                    <mxGeometry relative="1" as="geometry"/>
                </mxCell>
                <mxCell id="121" value="&lt;br&gt;Inp sys" style="html=1;strokeWidth=2;shape=manualInput;whiteSpace=wrap;rounded=1;size=26;arcSize=11;fontSize=16;align=left;verticalAlign=top;" parent="1" vertex="1">
                    <mxGeometry x="-125" y="-170" width="90" height="60" as="geometry"/>
                </mxCell>
                <mxCell id="129" style="edgeStyle=none;html=1;exitX=0.5;exitY=1;exitDx=0;exitDy=0;entryX=0.5;entryY=0;entryDx=0;entryDy=0;entryPerimeter=0;" parent="1" source="122" target="128" edge="1">
                    <mxGeometry relative="1" as="geometry"/>
                </mxCell>
                <mxCell id="122" value="&lt;br&gt;Inp serv" style="html=1;strokeWidth=2;shape=manualInput;whiteSpace=wrap;rounded=1;size=26;arcSize=11;fontSize=16;align=left;verticalAlign=top;" parent="1" vertex="1">
                    <mxGeometry x="-125" y="-70" width="90" height="60" as="geometry"/>
                </mxCell>
                <mxCell id="214" style="edgeStyle=none;html=1;exitX=0.5;exitY=1;exitDx=0;exitDy=0;exitPerimeter=0;fontColor=#050505;" edge="1" parent="1" source="128">
                    <mxGeometry relative="1" as="geometry">
                        <mxPoint x="-600" y="410" as="targetPoint"/>
                        <Array as="points">
                            <mxPoint x="-80" y="410"/>
                        </Array>
                    </mxGeometry>
                </mxCell>
                <mxCell id="128" value="&lt;font style=&quot;font-size: 11px;&quot;&gt;Variable&lt;br&gt;avec&lt;br&gt;Dictionaire&lt;/font&gt;" style="strokeWidth=2;html=1;shape=mxgraph.flowchart.merge_or_storage;whiteSpace=wrap;fontSize=16;verticalAlign=top;fontColor=#000000;fillColor=#FFCC99;" parent="1" vertex="1">
                    <mxGeometry x="-142.5" y="190" width="130" height="100" as="geometry"/>
                </mxCell>
                <mxCell id="142" value="" style="edgeStyle=none;html=1;exitX=0.5;exitY=1;exitDx=0;exitDy=0;entryX=0.5;entryY=0;entryDx=0;entryDy=0;fontSize=11;endArrow=none;" parent="1" source="18" target="136" edge="1">
                    <mxGeometry relative="1" as="geometry">
                        <mxPoint x="700.25" y="-930" as="sourcePoint"/>
                        <mxPoint x="700.25" y="-310" as="targetPoint"/>
                    </mxGeometry>
                </mxCell>
                <mxCell id="150" value="" style="edgeStyle=none;html=1;" parent="1" source="136" target="148" edge="1">
                    <mxGeometry relative="1" as="geometry"/>
                </mxCell>
                <mxCell id="136" value="" style="strokeWidth=1;html=1;shadow=0;dashed=0;shape=mxgraph.android.rrect;rSize=0;strokeColor=#888888;fillColor=#E6E6E6;fontColor=#000000;" parent="1" vertex="1">
                    <mxGeometry x="635" y="-851.6" width="130" height="40" as="geometry"/>
                </mxCell>
                <mxCell id="137" value="Opt 1" style="strokeColor=inherit;fillColor=inherit;gradientColor=inherit;strokeWidth=1;html=1;shadow=0;dashed=0;shape=mxgraph.android.rrect;rSize=0;align=left;spacingLeft=10;fontSize=8;fontColor=#050505;" parent="136" vertex="1">
                    <mxGeometry width="130" height="21.27659574468085" as="geometry"/>
                </mxCell>
                <mxCell id="138" value="Opt 2" style="strokeColor=inherit;fillColor=inherit;gradientColor=inherit;strokeWidth=1;html=1;shadow=0;dashed=0;shape=mxgraph.android.rrect;rSize=0;align=left;spacingLeft=10;fontSize=8;fontColor=#000000;" parent="136" vertex="1">
                    <mxGeometry y="21.27659574468085" width="130" height="18.72340425531915" as="geometry"/>
                </mxCell>
                <mxCell id="173" style="edgeStyle=none;html=1;exitX=0;exitY=0.5;exitDx=0;exitDy=0;exitPerimeter=0;entryX=0.5;entryY=0;entryDx=0;entryDy=0;entryPerimeter=0;fontColor=#000000;" parent="1" source="146" target="170" edge="1">
                    <mxGeometry relative="1" as="geometry"/>
                </mxCell>
                <mxCell id="174" style="edgeStyle=none;html=1;exitX=1;exitY=0.5;exitDx=0;exitDy=0;exitPerimeter=0;entryX=0.5;entryY=0;entryDx=0;entryDy=0;entryPerimeter=0;fontColor=#000000;" parent="1" source="146" target="172" edge="1">
                    <mxGeometry relative="1" as="geometry"/>
                </mxCell>
                <mxCell id="146" value="" style="strokeWidth=2;html=1;shape=mxgraph.flowchart.decision;whiteSpace=wrap;fontSize=16;" parent="1" vertex="1">
                    <mxGeometry x="650.25" y="-490" width="99.5" height="50" as="geometry"/>
                </mxCell>
                <mxCell id="149" value="" style="edgeStyle=none;html=1;endArrow=none;" parent="1" source="146" target="148" edge="1">
                    <mxGeometry relative="1" as="geometry">
                        <mxPoint x="704.9999999999995" y="-620" as="sourcePoint"/>
                        <mxPoint x="705" y="-780" as="targetPoint"/>
                    </mxGeometry>
                </mxCell>
                <mxCell id="148" value="&lt;br&gt;Inp User&lt;br&gt;selection fichier" style="html=1;strokeWidth=2;shape=manualInput;whiteSpace=wrap;rounded=1;size=26;arcSize=11;fontSize=16;align=center;verticalAlign=top;" parent="1" vertex="1">
                    <mxGeometry x="650.25" y="-720" width="100" height="100" as="geometry"/>
                </mxCell>
                <mxCell id="178" style="edgeStyle=none;html=1;exitX=0.5;exitY=1;exitDx=0;exitDy=0;exitPerimeter=0;entryX=0.5;entryY=0;entryDx=0;entryDy=0;fontColor=#000000;" parent="1" source="151" target="101" edge="1">
                    <mxGeometry relative="1" as="geometry"/>
                </mxCell>
                <mxCell id="151" value="&lt;font style=&quot;font-size: 11px;&quot;&gt;Variable&lt;br&gt;Opt1&lt;br&gt;avec&lt;br&gt;Dictionaire&lt;/font&gt;" style="strokeWidth=2;html=1;shape=mxgraph.flowchart.merge_or_storage;whiteSpace=wrap;fontSize=16;verticalAlign=top;fillColor=#CCFF99;fontColor=#000000;" parent="1" vertex="1">
                    <mxGeometry x="507.88" y="-215" width="164.75" height="120" as="geometry"/>
                </mxCell>
                <mxCell id="182" style="edgeStyle=none;html=1;exitX=0.5;exitY=1;exitDx=0;exitDy=0;exitPerimeter=0;fontColor=#000000;" parent="1" source="152" target="181" edge="1">
                    <mxGeometry relative="1" as="geometry"/>
                </mxCell>
                <mxCell id="152" value="&lt;font style=&quot;font-size: 11px;&quot;&gt;Variable&lt;br&gt;Opt2&lt;br&gt;avec&lt;br&gt;Dictionaire&lt;/font&gt;" style="strokeWidth=2;html=1;shape=mxgraph.flowchart.merge_or_storage;whiteSpace=wrap;fontSize=16;verticalAlign=top;fontColor=#000000;fillColor=#FFCC99;" parent="1" vertex="1">
                    <mxGeometry x="752.75" y="-215" width="155" height="130" as="geometry"/>
                </mxCell>
                <mxCell id="164" value="" style="edgeStyle=none;html=1;fontSize=23;entryX=0.535;entryY=-0.033;entryDx=0;entryDy=0;entryPerimeter=0;endArrow=none;" parent="1" source="3" target="160" edge="1">
                    <mxGeometry relative="1" as="geometry">
                        <mxPoint x="457.2629999999999" y="-1805.87" as="targetPoint"/>
                        <mxPoint x="459.3244685774225" y="-2050" as="sourcePoint"/>
                    </mxGeometry>
                </mxCell>
                <mxCell id="159" value="" style="strokeWidth=1;html=1;shadow=0;dashed=0;shape=mxgraph.android.rrect;rSize=0;strokeColor=#eeeeee;fillColor=#ffffff;gradientColor=none;fontColor=#000000;" parent="1" vertex="1">
                    <mxGeometry x="311.5" y="-2000" width="280" height="130" as="geometry"/>
                </mxCell>
                <mxCell id="160" value="Opt 1" style="strokeColor=inherit;fillColor=inherit;gradientColor=inherit;strokeWidth=1;html=1;shadow=0;dashed=0;shape=mxgraph.android.rrect;rSize=0;align=left;spacingLeft=10;fontSize=8;fontColor=#333333;" parent="159" vertex="1">
                    <mxGeometry width="280" height="20" as="geometry"/>
                </mxCell>
                <mxCell id="161" value="Opt 2" style="strokeColor=inherit;fillColor=inherit;gradientColor=inherit;strokeWidth=1;html=1;shadow=0;dashed=0;shape=mxgraph.android.rrect;rSize=0;align=left;spacingLeft=10;fontSize=8;fontColor=#333333;" parent="159" vertex="1">
                    <mxGeometry y="20" width="280" height="17.5" as="geometry"/>
                </mxCell>
                <mxCell id="165" value="Opt 3" style="strokeColor=inherit;fillColor=inherit;gradientColor=inherit;strokeWidth=1;html=1;shadow=0;dashed=0;shape=mxgraph.android.rrect;rSize=0;align=left;spacingLeft=10;fontSize=8;fontColor=#333333;" parent="159" vertex="1">
                    <mxGeometry y="37.5" width="280" height="20" as="geometry"/>
                </mxCell>
                <mxCell id="166" value="Opt 4" style="strokeColor=inherit;fillColor=inherit;gradientColor=inherit;strokeWidth=1;html=1;shadow=0;dashed=0;shape=mxgraph.android.rrect;rSize=0;align=left;spacingLeft=10;fontSize=8;fontColor=#333333;" parent="159" vertex="1">
                    <mxGeometry y="57.5" width="280" height="17.5" as="geometry"/>
                </mxCell>
                <mxCell id="167" value="Opt 5" style="strokeColor=inherit;fillColor=inherit;gradientColor=inherit;strokeWidth=1;html=1;shadow=0;dashed=0;shape=mxgraph.android.rrect;rSize=0;align=left;spacingLeft=10;fontSize=8;fontColor=#333333;" parent="159" vertex="1">
                    <mxGeometry y="75" width="280" height="17.5" as="geometry"/>
                </mxCell>
                <mxCell id="168" value="Opt 6" style="strokeColor=inherit;fillColor=inherit;gradientColor=inherit;strokeWidth=1;html=1;shadow=0;dashed=0;shape=mxgraph.android.rrect;rSize=0;align=left;spacingLeft=10;fontSize=8;fontColor=#333333;" parent="159" vertex="1">
                    <mxGeometry y="92.5" width="280" height="20" as="geometry"/>
                </mxCell>
                <mxCell id="169" value="Opt 7" style="strokeColor=inherit;fillColor=inherit;gradientColor=inherit;strokeWidth=1;html=1;shadow=0;dashed=0;shape=mxgraph.android.rrect;rSize=0;align=left;spacingLeft=10;fontSize=8;fontColor=#333333;" parent="159" vertex="1">
                    <mxGeometry y="112.5" width="280" height="17.5" as="geometry"/>
                </mxCell>
                <mxCell id="175" style="edgeStyle=none;html=1;exitX=0.5;exitY=1;exitDx=0;exitDy=0;exitPerimeter=0;fontColor=#000000;" parent="1" source="170" target="151" edge="1">
                    <mxGeometry relative="1" as="geometry"/>
                </mxCell>
                <mxCell id="170" value="Enregistre" style="strokeWidth=2;html=1;shape=mxgraph.flowchart.stored_data;whiteSpace=wrap;strokeColor=#E6E6E6;fontColor=#000000;fillColor=#E6E6E6;" parent="1" vertex="1">
                    <mxGeometry x="550" y="-327.5" width="80.5" height="45" as="geometry"/>
                </mxCell>
                <mxCell id="176" style="edgeStyle=none;html=1;exitX=0.5;exitY=1;exitDx=0;exitDy=0;exitPerimeter=0;entryX=0.5;entryY=0;entryDx=0;entryDy=0;entryPerimeter=0;fontColor=#000000;" parent="1" source="172" target="152" edge="1">
                    <mxGeometry relative="1" as="geometry"/>
                </mxCell>
                <mxCell id="172" value="Enregistre" style="strokeWidth=2;html=1;shape=mxgraph.flowchart.stored_data;whiteSpace=wrap;strokeColor=#E6E6E6;fontColor=#000000;fillColor=#E6E6E6;" parent="1" vertex="1">
                    <mxGeometry x="790" y="-325" width="80.5" height="45" as="geometry"/>
                </mxCell>
                <mxCell id="181" value="" style="dashed=0;outlineConnect=0;html=1;align=center;labelPosition=center;verticalLabelPosition=bottom;verticalAlign=top;shape=mxgraph.weblogos.json_2;fontSize=11;" parent="1" vertex="1">
                    <mxGeometry x="728.82" y="130" width="202.87" height="50" as="geometry"/>
                </mxCell>
                <mxCell id="204" value="" style="edgeStyle=none;html=1;fontColor=#050505;entryX=0.5;entryY=0;entryDx=0;entryDy=0;" edge="1" parent="1" source="197" target="198">
                    <mxGeometry relative="1" as="geometry">
                        <mxPoint x="240" y="-750" as="targetPoint"/>
                    </mxGeometry>
                </mxCell>
                <mxCell id="197" value="Cherche Dossier" style="aspect=fixed;html=1;points=[];align=center;image;fontSize=12;image=img/lib/azure2/general/Storage_Azure_Files.svg;verticalAlign=top;" vertex="1" parent="1">
                    <mxGeometry x="166.84" y="-873.6" width="76.31" height="62" as="geometry"/>
                </mxCell>
                <mxCell id="215" style="edgeStyle=none;html=1;exitX=0.5;exitY=1;exitDx=0;exitDy=0;fontColor=#050505;" edge="1" parent="1" source="198">
                    <mxGeometry relative="1" as="geometry">
                        <mxPoint x="-110" y="410" as="targetPoint"/>
                        <Array as="points">
                            <mxPoint x="210" y="410"/>
                        </Array>
                    </mxGeometry>
                </mxCell>
                <mxCell id="198" value="Liste les fichiers et son contenu" style="swimlane;fontStyle=0;childLayout=stackLayout;horizontal=1;startSize=30;horizontalStack=0;resizeParent=1;resizeParentMax=0;resizeLast=0;collapsible=1;marginBottom=0;whiteSpace=wrap;html=1;fillColor=#FFFFFF;fontColor=#050505;" vertex="1" parent="1">
                    <mxGeometry x="130.78" y="-745.6" width="148.42" height="105.60000000000001" as="geometry"/>
                </mxCell>
                <mxCell id="199" value="" style="dashed=0;outlineConnect=0;html=1;align=center;labelPosition=center;verticalLabelPosition=bottom;verticalAlign=top;shape=mxgraph.weblogos.json_2;fontSize=11;" vertex="1" parent="198">
                    <mxGeometry y="30" width="148.42" height="25.2" as="geometry"/>
                </mxCell>
                <mxCell id="200" value="" style="dashed=0;outlineConnect=0;html=1;align=center;labelPosition=center;verticalLabelPosition=bottom;verticalAlign=top;shape=mxgraph.weblogos.json_2;fontSize=11;" vertex="1" parent="198">
                    <mxGeometry y="55.2" width="148.42" height="25.2" as="geometry"/>
                </mxCell>
                <mxCell id="201" value="" style="dashed=0;outlineConnect=0;html=1;align=center;labelPosition=center;verticalLabelPosition=bottom;verticalAlign=top;shape=mxgraph.weblogos.json_2;fontSize=11;" vertex="1" parent="198">
                    <mxGeometry y="80.4" width="148.42" height="25.2" as="geometry"/>
                </mxCell>
                <mxCell id="216" value="Dossier avec les fichiers" style="aspect=fixed;html=1;points=[];align=center;image;fontSize=12;image=img/lib/azure2/general/Storage_Azure_Files.svg;verticalAlign=top;" vertex="1" parent="1">
                    <mxGeometry x="635" y="250" width="147.7" height="120" as="geometry"/>
                </mxCell>
                <mxCell id="217" style="edgeStyle=none;html=1;fontColor=#000000;entryX=0.166;entryY=0.003;entryDx=0;entryDy=0;entryPerimeter=0;" edge="1" parent="1" source="110" target="216">
                    <mxGeometry relative="1" as="geometry">
                        <mxPoint x="570.2500000000006" y="215" as="sourcePoint"/>
                        <mxPoint x="570.25375" y="290" as="targetPoint"/>
                        <Array as="points">
                            <mxPoint x="630" y="210"/>
                        </Array>
                    </mxGeometry>
                </mxCell>
                <mxCell id="218" style="edgeStyle=none;html=1;fontColor=#000000;entryX=0.911;entryY=-0.012;entryDx=0;entryDy=0;entryPerimeter=0;" edge="1" parent="1" source="181" target="216">
                    <mxGeometry relative="1" as="geometry">
                        <mxPoint x="820.0000000000005" y="260" as="sourcePoint"/>
                        <mxPoint x="820.0037499999999" y="335" as="targetPoint"/>
                    </mxGeometry>
                </mxCell>
                <mxCell id="220" style="edgeStyle=none;html=1;fontColor=#000000;exitX=0.486;exitY=1.023;exitDx=0;exitDy=0;exitPerimeter=0;" edge="1" parent="1" source="216">
                    <mxGeometry relative="1" as="geometry">
                        <mxPoint x="549.9963636363635" y="219.64" as="sourcePoint"/>
                        <mxPoint x="200" y="410" as="targetPoint"/>
                        <Array as="points">
                            <mxPoint x="707" y="410"/>
                        </Array>
                    </mxGeometry>
                </mxCell>
                <mxCell id="234" value="" style="edgeStyle=none;html=1;fontColor=#050505;" edge="1" parent="1" source="235" target="241">
                    <mxGeometry relative="1" as="geometry"/>
                </mxCell>
                <mxCell id="235" value="Liste les fichiers" style="swimlane;fontStyle=0;childLayout=stackLayout;horizontal=1;startSize=30;horizontalStack=0;resizeParent=1;resizeParentMax=0;resizeLast=0;collapsible=1;marginBottom=0;whiteSpace=wrap;html=1;fillColor=#FFFFFF;fontColor=#050505;" vertex="1" parent="1">
                    <mxGeometry x="402.5" y="-745.6" width="125" height="105.60000000000001" as="geometry"/>
                </mxCell>
                <mxCell id="236" value="" style="dashed=0;outlineConnect=0;html=1;align=center;labelPosition=center;verticalLabelPosition=bottom;verticalAlign=top;shape=mxgraph.weblogos.json_2;fontSize=11;" vertex="1" parent="235">
                    <mxGeometry y="30" width="125" height="25.2" as="geometry"/>
                </mxCell>
                <mxCell id="237" value="" style="dashed=0;outlineConnect=0;html=1;align=center;labelPosition=center;verticalLabelPosition=bottom;verticalAlign=top;shape=mxgraph.weblogos.json_2;fontSize=11;" vertex="1" parent="235">
                    <mxGeometry y="55.2" width="125" height="25.2" as="geometry"/>
                </mxCell>
                <mxCell id="238" value="" style="dashed=0;outlineConnect=0;html=1;align=center;labelPosition=center;verticalLabelPosition=bottom;verticalAlign=top;shape=mxgraph.weblogos.json_2;fontSize=11;" vertex="1" parent="235">
                    <mxGeometry y="80.4" width="125" height="25.2" as="geometry"/>
                </mxCell>
                <mxCell id="239" value="" style="edgeStyle=none;html=1;fontColor=#050505;entryX=0.438;entryY=-0.019;entryDx=0;entryDy=0;entryPerimeter=0;" edge="1" parent="1" source="240" target="235">
                    <mxGeometry relative="1" as="geometry">
                        <mxPoint x="460" y="-740" as="targetPoint"/>
                    </mxGeometry>
                </mxCell>
                <mxCell id="240" value="Cherche Dossier" style="aspect=fixed;html=1;points=[];align=center;image;fontSize=12;image=img/lib/azure2/general/Storage_Azure_Files.svg;verticalAlign=top;" vertex="1" parent="1">
                    <mxGeometry x="420" y="-880" width="76.31" height="62" as="geometry"/>
                </mxCell>
                <mxCell id="241" value="&lt;br&gt;Inp User&lt;br&gt;selection fichier" style="html=1;strokeWidth=2;shape=manualInput;whiteSpace=wrap;rounded=1;size=26;arcSize=11;fontSize=16;align=center;verticalAlign=top;" vertex="1" parent="1">
                    <mxGeometry x="415" y="-560" width="100" height="100" as="geometry"/>
                </mxCell>
                <mxCell id="242" style="edgeStyle=none;html=1;exitX=0.5;exitY=1;exitDx=0;exitDy=0;fontColor=#000000;entryX=0.53;entryY=0.001;entryDx=0;entryDy=0;entryPerimeter=0;" edge="1" parent="1" target="240">
                    <mxGeometry relative="1" as="geometry">
                        <mxPoint x="464.56659137576986" y="-873.6000000000001" as="targetPoint"/>
                        <mxPoint x="464.57" y="-940" as="sourcePoint"/>
                    </mxGeometry>
                </mxCell>
            </root>
        </mxGraphModel>
    </diagram>
</mxfile>